<?xml version="1.0" encoding="iso-8859-1"?>
<!-- Generator: Adobe Illustrator 19.0.0, SVG Export Plug-In . SVG Version: 6.00 Build 0)  -->
<svg version="1.1" id="Capa_1" xmlns="http://www.w3.org/2000/svg" xmlns:xlink="http://www.w3.org/1999/xlink" x="0px" y="0px"
	 viewBox="0 0 512 512" style="enable-background:new 0 0 512 512;" xml:space="preserve">
		<path d="M356,76h-90c0,27.637,22.363,50,50,50c-27.637,0-50,22.363-50,50h-20c0-5.051,0.547-9.975,1.568-14.725
			C240.116,166.749,230.935,170,221,170c-14.125,0-26.744-6.547-35-16.759C177.744,163.453,165.125,170,151,170
			c-9.245,0-17.844-2.805-25-7.604V231c0,16.569,13.431,30,30,30h10v251h180V261h10c16.569,0,30-13.431,30-30V106
			C386,89.431,372.569,76,356,76z"/>
		<path d="M361,0c-13.807,0-25,11.193-25,25v31h20c11.248,0,21.637,3.735,30,10.027V25C386,11.193,374.807,0,361,0z"/>
		<path d="M291,0c-13.807,0-25,11.193-25,25v31h50V25C316,11.193,304.807,0,291,0z"/>
		<path d="M221,0c-13.807,0-25,11.193-25,25v100c0,13.807,11.193,25,25,25s25-11.193,25-25V25C246,11.193,234.807,0,221,0z"/>

		<path d="M151,0c-13.807,0-25,11.193-25,25v100c0,13.807,11.193,25,25,25s25-11.193,25-25V25C176,11.193,164.807,0,151,0z"/>
</svg>
